<svg xmlns="http://www.w3.org/2000/svg" xmlns:xlink="http://www.w3.org/1999/xlink" width="500" zoomAndPan="magnify" viewBox="0 0 375 374.999991" height="500" preserveAspectRatio="xMidYMid meet" version="1.0"><path fill="#ffffff" d="M 73.933594 106.578125 C 73.097656 107.273438 71.925781 106.273438 72.480469 105.339844 C 76.113281 99.210938 84.511719 86.527344 97.878906 74.527344 C 103.175781 69.746094 108.800781 65.417969 114.699219 61.585938 C 127.410156 53.296875 140.351562 48.261719 150.019531 45.308594 C 151.160156 44.957031 151.792969 46.582031 150.71875 47.105469 C 117.191406 63.433594 85.757812 96.777344 73.933594 106.578125 Z M 112.699219 288.507812 C 146.378906 303.605469 193.628906 271.550781 252.527344 230.101562 C 275.859375 213.683594 294.394531 198.808594 307.179688 188.074219 C 311.320312 184.546875 318.90625 176.980469 321.734375 165.261719 C 326.925781 143.757812 313.195312 120.355469 295.269531 113.113281 C 284.714844 108.847656 274.644531 110.972656 270.339844 111.972656 C 233.09375 120.664062 205.84375 144.121094 171.382812 168.792969 C 171.382812 168.792969 87.742188 227.125 63.164062 212.28125 C 62.082031 211.621094 60.441406 210.988281 59.253906 210.765625 C 58.957031 210.707031 58.730469 210.726562 58.582031 210.847656 C 57.464844 211.667969 58.960938 216.03125 59.484375 217.53125 C 70.203125 248.097656 87.972656 267.015625 87.972656 267.015625 C 99.214844 278.996094 104.839844 284.980469 112.699219 288.507812 Z M 312.066406 220.089844 C 307.25 216.21875 291.957031 227.136719 266.304688 246.09375 C 219.78125 280.40625 183.558594 305.433594 156.007812 305.941406 C 154.875 305.960938 154.6875 307.574219 155.785156 307.847656 C 189.503906 316.390625 224.882812 311.488281 254.667969 295.191406 C 295.574219 271.476562 319.554688 226.101562 312.066406 220.089844 Z M 55.664062 150.894531 C 47.8125 200.730469 72.441406 200.097656 146.558594 148.507812 C 197.601562 112.996094 227.605469 94.578125 260.121094 85.886719 C 288.554688 76.003906 256.597656 56.714844 243.1875 50.722656 C 192.964844 28.347656 172.515625 38.640625 99.273438 96.515625 C 93.253906 101.269531 72.820312 120.214844 69.316406 117.179688 C 67.953125 116 70.011719 112.019531 68.839844 111.644531 C 68.070312 111.398438 65.558594 116.613281 62.722656 124.632812 C 60.535156 130.800781 57.804688 139.648438 55.664062 150.894531 " fill-opacity="1" fill-rule="nonzero"/><path fill="#ffffff" d="M 306.0625 293.386719 C 264.082031 335.367188 202.890625 351.761719 145.542969 336.394531 C 88.195312 321.03125 43.410156 276.238281 28.042969 218.886719 C 12.675781 161.539062 29.074219 100.351562 71.046875 58.371094 C 113.019531 16.386719 174.21875 0 231.566406 15.367188 C 288.914062 30.734375 333.707031 75.527344 349.074219 132.875 C 364.441406 190.214844 348.042969 251.402344 306.0625 293.386719 Z M 335.699219 136.453125 C 321.617188 83.886719 280.550781 42.824219 227.984375 28.742188 C 175.417969 14.65625 119.324219 29.679688 80.839844 68.164062 C 42.359375 106.648438 27.335938 162.734375 41.417969 215.308594 C 55.5 267.882812 96.566406 308.9375 149.132812 323.023438 C 201.699219 337.105469 257.785156 322.082031 296.269531 283.597656 C 334.75 245.117188 349.78125 189.019531 335.699219 136.453125 Z M 335.699219 136.453125 " fill-opacity="1" fill-rule="nonzero"/></svg>