<svg xmlns="http://www.w3.org/2000/svg" xmlns:xlink="http://www.w3.org/1999/xlink" width="500" zoomAndPan="magnify" viewBox="0 0 375 374.999991" height="500" preserveAspectRatio="xMidYMid meet" version="1.0"><defs><g/></defs><rect x="-37.5" width="450" fill="#ffffff" y="-37.499999" height="449.999989" fill-opacity="1"/><rect x="-37.5" width="450" fill="#00c2cb" y="-37.499999" height="449.999989" fill-opacity="1"/><path fill="#ffffff" d="M 151.808594 140.566406 C 151.550781 140.78125 151.183594 140.46875 151.355469 140.179688 C 152.488281 138.269531 155.101562 134.324219 159.265625 130.585938 C 160.914062 129.097656 162.664062 127.75 164.5 126.558594 C 168.457031 123.976562 172.484375 122.410156 175.496094 121.492188 C 175.851562 121.382812 176.046875 121.886719 175.714844 122.050781 C 165.277344 127.132812 155.492188 137.515625 151.808594 140.566406 Z M 163.878906 197.199219 C 174.363281 201.898438 189.070312 191.921875 207.40625 179.015625 C 214.671875 173.90625 220.441406 169.277344 224.421875 165.933594 C 225.710938 164.835938 228.070312 162.480469 228.953125 158.832031 C 230.566406 152.140625 226.292969 144.855469 220.710938 142.597656 C 217.425781 141.269531 214.292969 141.933594 212.953125 142.242188 C 201.355469 144.949219 192.875 152.253906 182.144531 159.933594 C 182.144531 159.933594 156.109375 178.089844 148.457031 173.46875 C 148.121094 173.265625 147.609375 173.066406 147.238281 173 C 147.148438 172.980469 147.078125 172.988281 147.03125 173.023438 C 146.683594 173.28125 147.148438 174.636719 147.3125 175.105469 C 150.648438 184.621094 156.179688 190.507812 156.179688 190.507812 C 159.679688 194.238281 161.429688 196.101562 163.878906 197.199219 Z M 225.941406 175.902344 C 224.441406 174.695312 219.679688 178.09375 211.695312 183.996094 C 197.210938 194.679688 185.9375 202.46875 177.359375 202.625 C 177.007812 202.632812 176.949219 203.136719 177.289062 203.222656 C 187.785156 205.878906 198.800781 204.355469 208.074219 199.28125 C 220.808594 191.898438 228.273438 177.773438 225.941406 175.902344 Z M 146.125 154.359375 C 143.679688 169.875 151.34375 169.679688 174.417969 153.617188 C 190.308594 142.5625 199.648438 136.828125 209.769531 134.125 C 218.621094 131.046875 208.675781 125.042969 204.5 123.175781 C 188.863281 116.210938 182.5 119.414062 159.699219 137.433594 C 157.824219 138.910156 151.464844 144.808594 150.371094 143.863281 C 149.949219 143.496094 150.589844 142.257812 150.222656 142.140625 C 149.984375 142.066406 149.203125 143.6875 148.320312 146.183594 C 147.640625 148.105469 146.789062 150.859375 146.125 154.359375 " fill-opacity="1" fill-rule="nonzero"/><path fill="#ffffff" d="M 224.074219 198.71875 C 211.003906 211.789062 191.953125 216.890625 174.101562 212.109375 C 156.25 207.324219 142.308594 193.378906 137.523438 175.527344 C 132.742188 157.675781 137.84375 138.625 150.910156 125.558594 C 163.976562 112.488281 183.027344 107.386719 200.882812 112.171875 C 218.734375 116.953125 232.679688 130.898438 237.460938 148.75 C 242.246094 166.601562 237.140625 185.648438 224.074219 198.71875 Z M 233.296875 149.867188 C 228.914062 133.5 216.128906 120.71875 199.765625 116.332031 C 183.402344 111.949219 165.941406 116.625 153.960938 128.605469 C 141.980469 140.585938 137.304688 158.046875 141.6875 174.414062 C 146.070312 190.777344 158.855469 203.558594 175.21875 207.945312 C 191.582031 212.328125 209.042969 207.652344 221.023438 195.671875 C 233.003906 183.691406 237.683594 166.230469 233.296875 149.867188 Z M 233.296875 149.867188 " fill-opacity="1" fill-rule="nonzero"/><g fill="#ffffff" fill-opacity="1"><g transform="translate(127.424757, 247.897967)"><g><path d="M 10.546875 0.25 C 9.242188 0.25 8.023438 0.00390625 6.890625 -0.484375 C 5.765625 -0.972656 4.765625 -1.648438 3.890625 -2.515625 C 3.023438 -3.390625 2.347656 -4.390625 1.859375 -5.515625 C 1.367188 -6.648438 1.125 -7.867188 1.125 -9.171875 C 1.125 -10.484375 1.367188 -11.703125 1.859375 -12.828125 C 2.347656 -13.960938 3.023438 -14.960938 3.890625 -15.828125 C 4.765625 -16.691406 5.765625 -17.367188 6.890625 -17.859375 C 8.023438 -18.347656 9.242188 -18.59375 10.546875 -18.59375 C 11.859375 -18.59375 13.082031 -18.347656 14.21875 -17.859375 C 15.363281 -17.367188 16.363281 -16.691406 17.21875 -15.828125 C 18.070312 -14.960938 18.742188 -13.960938 19.234375 -12.828125 C 19.722656 -11.703125 19.96875 -10.484375 19.96875 -9.171875 C 19.96875 -7.867188 19.722656 -6.648438 19.234375 -5.515625 C 18.742188 -4.390625 18.070312 -3.390625 17.21875 -2.515625 C 16.363281 -1.648438 15.363281 -0.972656 14.21875 -0.484375 C 13.082031 0.00390625 11.859375 0.25 10.546875 0.25 Z M 10.546875 -3.703125 C 11.585938 -3.703125 12.519531 -3.941406 13.34375 -4.421875 C 14.175781 -4.898438 14.832031 -5.550781 15.3125 -6.375 C 15.789062 -7.195312 16.03125 -8.128906 16.03125 -9.171875 C 16.03125 -10.210938 15.789062 -11.144531 15.3125 -11.96875 C 14.832031 -12.800781 14.175781 -13.457031 13.34375 -13.9375 C 12.519531 -14.414062 11.585938 -14.65625 10.546875 -14.65625 C 9.523438 -14.65625 8.601562 -14.414062 7.78125 -13.9375 C 6.957031 -13.457031 6.304688 -12.800781 5.828125 -11.96875 C 5.347656 -11.144531 5.109375 -10.210938 5.109375 -9.171875 C 5.109375 -8.128906 5.347656 -7.195312 5.828125 -6.375 C 6.304688 -5.550781 6.957031 -4.898438 7.78125 -4.421875 C 8.601562 -3.941406 9.523438 -3.703125 10.546875 -3.703125 Z M 10.546875 -3.703125 "/></g></g></g><g fill="#ffffff" fill-opacity="1"><g transform="translate(148.063859, 247.897967)"><g><path d="M 7.765625 0.25 C 6.398438 0.25 5.207031 -0.0234375 4.1875 -0.578125 C 3.164062 -1.128906 2.367188 -1.882812 1.796875 -2.84375 C 1.234375 -3.800781 0.953125 -4.894531 0.953125 -6.125 C 0.953125 -7.34375 1.234375 -8.429688 1.796875 -9.390625 C 2.367188 -10.347656 3.164062 -11.101562 4.1875 -11.65625 C 5.207031 -12.207031 6.398438 -12.484375 7.765625 -12.484375 C 9.597656 -12.484375 11.101562 -12 12.28125 -11.03125 C 13.46875 -10.0625 14.195312 -8.8125 14.46875 -7.28125 L 10.4375 -7.28125 C 10.226562 -7.8125 9.890625 -8.226562 9.421875 -8.53125 C 8.953125 -8.84375 8.398438 -9.003906 7.765625 -9.015625 C 6.929688 -9.003906 6.238281 -8.726562 5.6875 -8.1875 C 5.132812 -7.644531 4.859375 -6.957031 4.859375 -6.125 C 4.859375 -5.300781 5.132812 -4.613281 5.6875 -4.0625 C 6.238281 -3.507812 6.929688 -3.226562 7.765625 -3.21875 C 8.398438 -3.226562 8.953125 -3.390625 9.421875 -3.703125 C 9.890625 -4.023438 10.226562 -4.441406 10.4375 -4.953125 L 14.46875 -4.953125 C 14.195312 -3.421875 13.46875 -2.171875 12.28125 -1.203125 C 11.101562 -0.234375 9.597656 0.25 7.765625 0.25 Z M 7.765625 0.25 "/></g></g></g><g fill="#ffffff" fill-opacity="1"><g transform="translate(162.740512, 247.897967)"><g><path d="M 14.25 -6.140625 L 14.25 -5.46875 L 4.890625 -5.46875 C 4.972656 -4.59375 5.25 -3.90625 5.71875 -3.40625 C 6.1875 -2.90625 6.859375 -2.65625 7.734375 -2.65625 C 9.078125 -2.65625 9.9375 -3.175781 10.3125 -4.21875 L 14.0625 -4.21875 C 13.757812 -2.894531 13.0625 -1.816406 11.96875 -0.984375 C 10.882812 -0.160156 9.492188 0.25 7.796875 0.25 C 6.429688 0.25 5.234375 -0.015625 4.203125 -0.546875 C 3.171875 -1.078125 2.367188 -1.820312 1.796875 -2.78125 C 1.234375 -3.738281 0.953125 -4.851562 0.953125 -6.125 C 0.953125 -7.40625 1.234375 -8.523438 1.796875 -9.484375 C 2.367188 -10.441406 3.164062 -11.1875 4.1875 -11.71875 C 5.207031 -12.25 6.367188 -12.515625 7.671875 -12.515625 C 9.003906 -12.515625 10.15625 -12.25 11.125 -11.71875 C 12.101562 -11.1875 12.867188 -10.445312 13.421875 -9.5 C 13.972656 -8.550781 14.25 -7.429688 14.25 -6.140625 Z M 7.734375 -9.515625 C 7.046875 -9.515625 6.488281 -9.363281 6.0625 -9.0625 C 5.644531 -8.769531 5.335938 -8.359375 5.140625 -7.828125 L 10.21875 -7.828125 C 10.007812 -8.359375 9.707031 -8.769531 9.3125 -9.0625 C 8.914062 -9.363281 8.390625 -9.515625 7.734375 -9.515625 Z M 7.734375 -9.515625 "/></g></g></g><g fill="#ffffff" fill-opacity="1"><g transform="translate(177.417166, 247.897967)"><g><path d="M 15.453125 -3.1875 L 16 -3.1875 L 16 0 C 15.851562 0.0625 15.691406 0.117188 15.515625 0.171875 C 15.347656 0.222656 15.160156 0.25 14.953125 0.25 C 14.140625 0.25 13.40625 0.0625 12.75 -0.3125 C 12.101562 -0.695312 11.582031 -1.203125 11.1875 -1.828125 C 10.695312 -1.203125 10.097656 -0.695312 9.390625 -0.3125 C 8.691406 0.0625 7.894531 0.25 7 0.25 C 5.882812 0.25 4.863281 -0.0351562 3.9375 -0.609375 C 3.019531 -1.179688 2.289062 -1.945312 1.75 -2.90625 C 1.21875 -3.863281 0.953125 -4.9375 0.953125 -6.125 C 0.953125 -7.300781 1.21875 -8.367188 1.75 -9.328125 C 2.289062 -10.285156 3.019531 -11.050781 3.9375 -11.625 C 4.863281 -12.195312 5.882812 -12.484375 7 -12.484375 C 7.71875 -12.484375 8.363281 -12.363281 8.9375 -12.125 C 9.519531 -11.894531 10.035156 -11.570312 10.484375 -11.15625 L 10.484375 -12.234375 L 14.375 -12.234375 L 14.375 -4.375 C 14.375 -3.863281 14.484375 -3.535156 14.703125 -3.390625 C 14.929688 -3.253906 15.179688 -3.1875 15.453125 -3.1875 Z M 7.765625 -3.21875 C 8.566406 -3.21875 9.25 -3.492188 9.8125 -4.046875 C 10.382812 -4.609375 10.671875 -5.300781 10.671875 -6.125 C 10.671875 -6.9375 10.382812 -7.617188 9.8125 -8.171875 C 9.25 -8.734375 8.566406 -9.015625 7.765625 -9.015625 C 6.953125 -9.015625 6.265625 -8.734375 5.703125 -8.171875 C 5.140625 -7.617188 4.859375 -6.9375 4.859375 -6.125 C 4.859375 -5.300781 5.140625 -4.609375 5.703125 -4.046875 C 6.265625 -3.492188 6.953125 -3.21875 7.765625 -3.21875 Z M 7.765625 -3.21875 "/></g></g></g><g fill="#ffffff" fill-opacity="1"><g transform="translate(193.378038, 247.897967)"><g><path d="M 9.203125 -12.484375 C 10.023438 -12.484375 10.757812 -12.269531 11.40625 -11.84375 C 12.0625 -11.425781 12.585938 -10.859375 12.984375 -10.140625 C 13.378906 -9.429688 13.578125 -8.628906 13.578125 -7.734375 L 13.578125 0 L 9.703125 0 L 9.703125 -7.09375 C 9.703125 -7.644531 9.519531 -8.101562 9.15625 -8.46875 C 8.800781 -8.832031 8.335938 -9.015625 7.765625 -9.015625 C 7.191406 -9.015625 6.707031 -8.832031 6.3125 -8.46875 C 5.914062 -8.101562 5.71875 -7.644531 5.71875 -7.09375 L 5.71875 0 L 1.796875 0 L 1.796875 -12.234375 L 5.71875 -12.234375 L 5.71875 -10.734375 C 6.144531 -11.265625 6.660156 -11.6875 7.265625 -12 C 7.867188 -12.320312 8.515625 -12.484375 9.203125 -12.484375 Z M 9.203125 -12.484375 "/></g></g></g><g fill="#ffffff" fill-opacity="1"><g transform="translate(208.024113, 247.897967)"><g><path d="M 9.609375 -18.359375 C 10.640625 -18.359375 11.566406 -18.109375 12.390625 -17.609375 C 13.222656 -17.109375 13.878906 -16.4375 14.359375 -15.59375 C 14.835938 -14.757812 15.078125 -13.832031 15.078125 -12.8125 C 15.078125 -11.789062 14.835938 -10.875 14.359375 -10.0625 C 13.878906 -9.25 13.222656 -8.609375 12.390625 -8.140625 C 11.566406 -7.671875 10.640625 -7.4375 9.609375 -7.4375 L 5.84375 -7.4375 L 5.84375 0 L 1.796875 0 L 1.796875 -18.359375 Z M 8.96875 -10.765625 C 9.613281 -10.765625 10.148438 -10.945312 10.578125 -11.3125 C 11.003906 -11.6875 11.21875 -12.175781 11.21875 -12.78125 C 11.21875 -13.375 11.003906 -13.859375 10.578125 -14.234375 C 10.148438 -14.609375 9.613281 -14.796875 8.96875 -14.796875 L 5.84375 -14.796875 L 5.84375 -10.765625 Z M 8.96875 -10.765625 "/></g></g></g><g fill="#ffffff" fill-opacity="1"><g transform="translate(222.731346, 247.897967)"><g><path d="M 7.765625 0.25 C 6.398438 0.25 5.207031 -0.0234375 4.1875 -0.578125 C 3.164062 -1.128906 2.367188 -1.882812 1.796875 -2.84375 C 1.234375 -3.800781 0.953125 -4.894531 0.953125 -6.125 C 0.953125 -7.34375 1.234375 -8.429688 1.796875 -9.390625 C 2.367188 -10.347656 3.164062 -11.101562 4.1875 -11.65625 C 5.207031 -12.207031 6.398438 -12.484375 7.765625 -12.484375 C 9.128906 -12.484375 10.320312 -12.207031 11.34375 -11.65625 C 12.363281 -11.101562 13.15625 -10.347656 13.71875 -9.390625 C 14.28125 -8.429688 14.5625 -7.34375 14.5625 -6.125 C 14.5625 -4.894531 14.28125 -3.800781 13.71875 -2.84375 C 13.15625 -1.882812 12.363281 -1.128906 11.34375 -0.578125 C 10.320312 -0.0234375 9.128906 0.25 7.765625 0.25 Z M 7.765625 -3.21875 C 8.597656 -3.226562 9.289062 -3.507812 9.84375 -4.0625 C 10.394531 -4.613281 10.671875 -5.300781 10.671875 -6.125 C 10.671875 -6.957031 10.394531 -7.644531 9.84375 -8.1875 C 9.289062 -8.726562 8.597656 -9.003906 7.765625 -9.015625 C 6.929688 -9.003906 6.238281 -8.726562 5.6875 -8.1875 C 5.132812 -7.644531 4.859375 -6.957031 4.859375 -6.125 C 4.859375 -5.300781 5.132812 -4.613281 5.6875 -4.0625 C 6.238281 -3.507812 6.929688 -3.226562 7.765625 -3.21875 Z M 7.765625 -3.21875 "/></g></g></g><g fill="#ffffff" fill-opacity="1"><g transform="translate(237.774928, 247.897967)"><g><path d="M 9.171875 -9.203125 L 6.265625 -9.203125 L 6.265625 -4.828125 C 6.265625 -4.316406 6.394531 -3.914062 6.65625 -3.625 C 6.925781 -3.332031 7.265625 -3.1875 7.671875 -3.1875 L 9.140625 -3.1875 L 9.140625 -0.15625 C 9.003906 -0.0507812 8.742188 0.0390625 8.359375 0.125 C 7.984375 0.207031 7.59375 0.25 7.1875 0.25 C 6.332031 0.25 5.535156 0.046875 4.796875 -0.359375 C 4.066406 -0.773438 3.484375 -1.332031 3.046875 -2.03125 C 2.609375 -2.738281 2.390625 -3.519531 2.390625 -4.375 L 2.390625 -9.203125 L 0.34375 -9.203125 L 0.34375 -12.234375 L 2.390625 -12.234375 L 2.390625 -16.9375 L 6.265625 -16.9375 L 6.265625 -12.234375 L 9.171875 -12.234375 Z M 9.171875 -9.203125 "/></g></g></g></svg>